<svg width="24" height="31" viewBox="0 0 24 31" fill="none" xmlns="http://www.w3.org/2000/svg">
<path d="M14 12.4646V10.9146C14.55 10.6132 15.1125 10.3872 15.6875 10.2365C16.2625 10.0858 16.8667 10.0104 17.5 10.0104C17.9333 10.0104 18.3583 10.0535 18.775 10.1396C19.1917 10.2257 19.6 10.3333 20 10.4625V11.8833C19.6 11.6896 19.1958 11.5443 18.7875 11.4474C18.3792 11.3505 17.95 11.3021 17.5 11.3021C16.8667 11.3021 16.2583 11.4043 15.675 11.6089C15.0917 11.8134 14.5333 12.0986 14 12.4646ZM14 19.5687V17.9865C14.55 17.6851 15.1125 17.4644 15.6875 17.3245C16.2625 17.1845 16.8667 17.1146 17.5 17.1146C17.9333 17.1146 18.3583 17.1576 18.775 17.2437C19.1917 17.3299 19.6 17.4375 20 17.5667V18.9875C19.6 18.7937 19.1958 18.6484 18.7875 18.5516C18.3792 18.4547 17.95 18.4062 17.5 18.4062C16.8667 18.4062 16.2583 18.5031 15.675 18.6969C15.0917 18.8906 14.5333 19.1812 14 19.5687ZM14 16.0167V14.4667C14.55 14.1653 15.1125 13.9392 15.6875 13.7885C16.2625 13.6378 16.8667 13.5625 17.5 13.5625C17.9333 13.5625 18.3583 13.6056 18.775 13.6917C19.1917 13.7778 19.6 13.8854 20 14.0146V15.4354C19.6 15.2417 19.1958 15.0964 18.7875 14.9995C18.3792 14.9026 17.95 14.8542 17.5 14.8542C16.8667 14.8542 16.2583 14.9564 15.675 15.1609C15.0917 15.3654 14.5333 15.6507 14 16.0167ZM6.2 21.3125C7.1 21.3125 7.97083 21.447 8.8125 21.7161C9.65417 21.9852 10.4833 22.3889 11.3 22.9271V9.13854C10.55 8.49271 9.7375 7.99218 8.8625 7.63698C7.9875 7.28177 7.1 7.10416 6.2 7.10416C5.56667 7.10416 4.94583 7.20642 4.3375 7.41094C3.72917 7.61545 3.11667 7.8684 2.5 8.16979V22.1844C3.01667 21.883 3.60417 21.6623 4.2625 21.5224C4.92083 21.3825 5.56667 21.3125 6.2 21.3125ZM12.8 22.9271C13.6333 22.3889 14.45 21.9852 15.25 21.7161C16.05 21.447 16.9 21.3125 17.8 21.3125C18.4333 21.3125 19.0875 21.3771 19.7625 21.5062C20.4375 21.6354 21.0167 21.8076 21.5 22.0229V8.16979C20.9333 7.80382 20.3333 7.53472 19.7 7.3625C19.0667 7.19027 18.4333 7.10416 17.8 7.10416C16.9 7.10416 16.0292 7.28177 15.1875 7.63698C14.3458 7.99218 13.55 8.49271 12.8 9.13854V22.9271ZM12.05 25.8333C11.2 25.0153 10.275 24.3856 9.275 23.9443C8.275 23.5029 7.25 23.2823 6.2 23.2823C5.58333 23.2823 4.98333 23.3792 4.4 23.5729C3.81667 23.7667 3.23333 24.0035 2.65 24.2833C2.26667 24.5201 1.89583 24.4878 1.5375 24.1865C1.17917 23.8851 1 23.4545 1 22.8948V7.94375C1 7.62083 1.05833 7.32482 1.175 7.05573C1.29167 6.78663 1.46667 6.57673 1.7 6.42604C2.4 5.99548 3.12917 5.67795 3.8875 5.47344C4.64583 5.26892 5.41667 5.16666 6.2 5.16666C7.25 5.16666 8.27083 5.34965 9.2625 5.71562C10.2542 6.08159 11.1833 6.64132 12.05 7.39479C12.9 6.64132 13.8125 6.08159 14.7875 5.71562C15.7625 5.34965 16.7667 5.16666 17.8 5.16666C18.5833 5.16666 19.35 5.26892 20.1 5.47344C20.85 5.67795 21.575 5.99548 22.275 6.42604C22.5083 6.57673 22.6875 6.78663 22.8125 7.05573C22.9375 7.32482 23 7.62083 23 7.94375V22.8948C23 23.4976 22.8125 23.955 22.4375 24.2672C22.0625 24.5793 21.6917 24.5847 21.325 24.2833C20.7583 23.9819 20.1833 23.7398 19.6 23.5568C19.0167 23.3738 18.4167 23.2823 17.8 23.2823C16.75 23.2823 15.7417 23.5083 14.775 23.9604C13.8083 24.4125 12.9 25.0368 12.05 25.8333Z" fill="url(#paint0_linear_12_144)"/>
<defs>
<linearGradient id="paint0_linear_12_144" x1="12" y1="5.16666" x2="12" y2="25.8333" gradientUnits="userSpaceOnUse">
<stop stop-color="#69E20A"/>
<stop offset="1" stop-color="#B6F829"/>
</linearGradient>
</defs>
</svg>
