<svg width="25" height="22" viewBox="0 0 25 22" fill="none" xmlns="http://www.w3.org/2000/svg">
<path d="M12.3698 20.1667L17.0833 9.16668H19.2187L24.0625 20.1667H21.7968L20.7291 17.2792H15.7291L14.5052 20.1667H12.3698ZM16.302 15.675H20L18.177 11.2292H18.125L16.302 15.675ZM4.16663 17.4167L2.73433 16.1563L8.04683 11.4813C7.38711 10.809 6.80117 10.133 6.28902 9.45314C5.77687 8.77327 5.32982 8.06668 4.94788 7.33334H7.2135C7.50864 7.83751 7.83416 8.31494 8.19006 8.76564C8.54597 9.21633 8.94961 9.67848 9.401 10.1521C10.1823 9.43404 10.8333 8.68925 11.3541 7.91772C11.875 7.14619 12.3177 6.34029 12.6823 5.50001H1.04163V3.66668H8.33329V1.83334H10.4166V3.66668H17.7083V5.50001H14.7656C14.3836 6.55418 13.8758 7.58925 13.2421 8.60522C12.6085 9.62119 11.8316 10.5875 10.9114 11.5042L13.4635 13.7729L12.6823 15.6292L9.37496 12.8333L4.16663 17.4167Z" fill="url(#paint0_linear_12_146)"/>
<defs>
<linearGradient id="paint0_linear_12_146" x1="12.552" y1="1.83334" x2="12.552" y2="20.1667" gradientUnits="userSpaceOnUse">
<stop stop-color="#69E20A"/>
<stop offset="1" stop-color="#B6F829"/>
</linearGradient>
</defs>
</svg>
